/* XPM */
static char *dcc0b42e85854dc38965a7f292de6ecdddiN2SMgSaf7iEaS[] = {
/* columns rows colors chars-per-pixel */
"64 64 72 1 ",
"  c #3C3D00",
". c #3F4000",
"X c #444500",
"o c #474900",
"O c #4B4D00",
"+ c #4E5000",
"@ c #535500",
"# c #565900",
"$ c #5A5D00",
"% c #5E6200",
"& c #626500",
"* c #656A00",
"= c #696E00",
"- c #6D7300",
"; c #6F7800",
": c #717600",
"> c #757B00",
", c #797E00",
"< c #7D8200",
"1 c #808300",
"2 c #818500",
"3 c #838600",
"4 c #838700",
"5 c #838900",
"6 c #828A00",
"7 c #868900",
"8 c #858B00",
"9 c #858C00",
"0 c #878E00",
"q c #888B00",
"w c #888C00",
"e c #898C00",
"r c #898F00",
"t c #8A8F00",
"y c #8A9000",
"u c #8C9100",
"i c #8C9200",
"p c #8F9200",
"a c #8F9400",
"s c #909400",
"d c #919500",
"f c #929500",
"g c #909600",
"h c #939800",
"j c #949A00",
"k c #969A00",
"l c #979C00",
"z c #969D00",
"x c #989C00",
"c c #999F00",
"v c #9A9E00",
"b c #9B9F00",
"n c #99A000",
"m c #9AA000",
"M c #9CA300",
"N c #9EA200",
"B c #9EA400",
"V c #9FA500",
"C c #A0A500",
"Z c #A1A700",
"A c #A3A800",
"S c #A3A900",
"D c #A5AB00",
"F c #A5AC00",
"G c #A7AD00",
"H c #A8AE00",
"J c #A9AF00",
"K c #A9B000",
"L c #ABB100",
"P c #ACB200",
"I c #B1B700",
"U c #B3BA00",
/* pixels */
"SZBMZZBZZZMZc2%Xo@##@+@++#&*&&@+@$&&#@+#$&&*&@O&dPHSZcdcZSZccMZS",
"McjddcMZMxjcx5%XX#&*&&$&&&=--=$$%===&$$$&=--=&$:xHZcjtqdMAMjuujM",
"uw2<1wdju99dd3% X&,q1,,,,<13<<:>,22,>>::>,<<,,1dZSjw1<,5dcd2,><2",
"<,>:><22<<<9d2$ .&sZcfffdq33959udw31<<59w95<2ijZFZd2>-;>2q3>-=-:",
">>>,<,>;>,<ujw&  &dZcdjcf3:><5wui6<:,<wdh9<:,wMHPSd3>=*-,<,>:::>",
",,<22,;=-<5djw=oX&qjuwdjw,;:<292<<><><<aa9>-:3MHHZd2:==>,<>>,,,,",
"><<5<,;;:,5dmu>@o&5d525w2>:><9<:;>56<;<<<<>-:<cSSm3:==-<ww<>>,,<",
"<<<<,>>,,<qdjw-@X&wd9,<<,,,<5<,;;<aa5<<<,,>;><dZBu,:::>3si<>,,,;",
"5<<<<:,,<5raz9*XX&qs5,>,<<25<<>><5uuw2<<:;;;>1ucz5,<22<<qq<,2<:-",
"5555<<,<2<<ih9=XX&qs2>>,<wuw<>>,<29ww2>>>;-->wjbci<5uu5<2<<5w5>=",
"9iii9599<<<iza:+X&qu<-->2wdw<>>,,,,22<:-:>;;,wcSZji9uuw2<<5uhu,:",
"idddwwwi5<<hmd:#@;wu>&&:,952,;;<,,>>,,:-:>,,,5cSFMdwwuu9<5wzmhw2",
"iwuw5595<,2dh2&O#>ut<*%->,<,>>,<25>:>,<>:,53,5cZbdw2<255<<2dauuu",
">>,,:;;-&=><<&o o-ucw<<<25225qudjdq12qu515dwwdMf1::-*=>:=&==;:,,",
"@#&--%#OO#&=%+X o*aBBcxccxcjbMbbZZMjjcSMddjMMHSq&#&$#$&&$O+@@#$$",
"#%:<<:$@#=>:=&&&=<zPLLPPPPPPHbtsMHIIPPFSBcZHIUPd==:>==-:=&%&&$oX",
"jjmSBjq5sccjdcBmmmBFHHHLPPSSZ<&-hLILHSMMSFFFLLLmddccjjMScdjdj,#o",
"PFmmmmcBHLScdxBBBjaahmZSMcccd:O#iLBzu52izMmdhzmmbcjjmSLHSMBPPw%O",
"Fm5,<23uMZc5<<<2<<<<1wadd55uu:o#wBd<:--,iw5,><2uw5<,5dcd5,5mSw&O",
"Zj<:=-->3w3,>>>:-:<<>,<5<<<qu>@#iBw:*&&:<<;-&-<<<,>>>,2<-*=2j5&O",
"SMt,:-=->,,,,,>;;,59,:::>,<us,@&iSi,-=-,5<;&;:,>,<<2<>::-&=<d2&o",
"HMd5<,,,,>>><<,>><22,>---,5fs1&&wBa<:;,9i5:;,<<>><52<>:>>;:<u2%o",
"Mj5<25ww5<>,<<,,,>>>>>:;>,5fx3==iz5>->2dzw<><5<:>,>>,,<<,:,5d3%o",
"jt<:,5udi92<,,:;,,,>>>>>,,qfs3*=ih<;=:<ddw2<5<,;>>>:><55<,,9fw=$",
"dq,:><<25udu5<-;<ww2<>,<<2wds,&&9z9>;>,5i9<<<>;;>,<<,,<55<<5hi>&",
"dt2<<<,,1wjj5>-;2wuw2<,2ww9us,$=am<<>>;,59<<;-;:><<<:>,2<<<9h9>&",
"cju5qi2<<wdj5<><9ww9929udu9ws3=>zMw<<<;:59<>;><<<<5<:><95<5hcq*@",
"SMjddju5<5ddi5<9uw5<5wudd99dc5->zMd9w<,,<i5<><ii95<<,<wuw5iMZq&o",
"Mcdqquu5<5iaiw9www5<255w5<5dd,%&5cdw92,,,<<<2waw5559qqwwqqscc5%O",
"2<,:;,2<:><5<<,>:>>,>:--:>,1,&OO*,1,>;;-*&&:<<<:::<<32<<,>,33>$O",
"$$$##&:=%%;-&$#@#$=:;%##&;;=%+XX+&=*$%**$o+#=;&###$*::&$##$$%$@+",
"XXooXO$$@#@#O. X@=><>*%&;,>-&%$$$=::&*:>=&$=:=#oXXX+#&@oXXOOOOOO",
"oo@@OOO###@OX  #>wduw2<<wuw9292<,5iq55wdq31qw>$XXoo@$$$@oo@###+O",
"$&&&%$#$*&#@##$:ucduw995ddi9uhchduuuuuudtqtjj1$oX@#***&$%$&*=&&$",
">>,,>=*=::=&;:,wdu<,<<<<22,>,9ai1>,,,,,>:=>5d2&Xo&,3,:=:::-->>>:",
"<235<,;:,<,,,2ujd5>-;;-==--&&-,<:*&&***&&&&>5,#XO=qt2>,<2,>>>,<<",
"><5w<,;>,<<,,2ujd9,-=--&&**&%&->-&%%&&%&=&&-3,%X+-wt<><92<,>:>,1",
"=:<w<>::>>>>><wdd9,-*=--*&===*---*&&--&--=*:3,%XO=33,,<5<>>,,,,<",
"&=,<>;;>;:--=>3uu9:*&=:>-&-:::---*-;>>----=>3,%.O&1q<,<<>-->22<<",
"&=;:=;><>-&%&:2du<:&&=>>>-;:::=&-->:<>:---;,53&Oo&3q3,>:-==-,,,>",
"==-----:>;&%&;5fd2;&*-;;:==-:-&&*;>>:--:>-:,w2=O@=2u2>--*-===--;",
"--;:;;-;:-&&-<wjd5;&&&=;>==-::=&-->:===>:::,51=@+=5u5>-*%=;-*&&=",
"=--:<<-&%%%=,whcj9>=&&=>,:==,2,:--;-&=:>>:>2w5%Oo&2w<>=&%*;;-%*=",
"&&%-<<,-%%%-,wjcjw,;-=->,:=:2uw<:;;-=:,2,><ud2% X&<9<:=**=---*--",
"&&%*>55,*%&-,qsxu3,>---;:==:,32,:;:>>>,,,>,5i,$XX%,w,--::--=--;>",
">-==,5u5,:>,<tfq>====*&&&$$&-::*%%=::===*&=-:*O  $,9<,<2<,,>;,55",
"w5215uhaq3qqsxx1%@$$$##$@O@#%%#@O#%*&%$@+@@##@O X$,wqwwduutw9whz",
"xccjjjjdssjxbZC5=%&&&%&&%$#&*$OO$&===%$@$$%$%&%$&:qzjxMbcccmjdw5",
"jxxxjduahjhdhjcdw259ww5wq53q1=@@>wui92129w55w99<1wfzhhzmcxjmj1=$",
"dduw522wdji2<<5shdwiujcccdudt:#&5Bjuuwqujju9uhzduwuw5255315dd,#X",
"dw3,;--,wa2:**-<5<,>,2wd5<<5q>#$5f9,<<>,22<>,5ii<>>:;>:-=&-<w,$X",
"ds1,-%%-<2<=&%=:>;=&=->,>--<3:#$<w,;::-==--&*;,<:*&&&->-&$%>9<$O",
"cs9,-&$&-:-=**::-===**&=*=:15:$$1t<:=;=*&&&*=--:-&%%&:<,=#$:5,&O",
"du5<:=&&%&---:>>--;;-=%%=;,5q>$&1u2=*=--*&*->>---&%&;,<<:&&:5,$O",
"w3,>>>-&%%=-;;;--;>>;*&-:><5w,&&2w,*&*;>-&=,2<:==-=;>,>>-&=>q,&O",
"q<:=:,:==&&=--=*->>;--=:,,<59>$&25>*&=;>:->25<-&*-:>,>>>:-=,q2&#",
"5<;==;:::=&=;-=&:>>:==-:,,,5w:$&29>=&;---><w5<&&*:,>:,,1<--,22=$",
"52:*&&-><:*-;=&=:>-=-::::>,1q:$%2w>*%=--;,<<>*=&=:>=*:13,-;<9<*$",
"uw,=&*:,:>:>:==:,,:->,,>:=:,q,&=9u<*%%=-,,,-**;::::=&=,1,;>5u,&@",
"ju2,:>,,>><<,>:,<<,>,<<<:=:5w,&=5d<:---;,,:==:<<,::==:>1,:<wd1%O",
"uw2<222,::<<<,<<11,>>,,,:->5w,&&2u9,:>;;:;-;:<<<>;>,>,,1,,2wd,%+",
",>:>,,,-**::::-:=::--=-=*=:<,=@#-,,>;;==*&&-:>>=&=;>,::=;=:,,:$@",
"$$$$&&*&$$&&$$$$$$$$&&$$#$&=&$@@$&=&%&&&$@#$**%#@$&==&&$#$$$$$@@",
"OOOoO$$#@@$$#@OO+++@$$@OO#$$#OoOO#$$@#$##OO#%$@OO@$&&#@OOO+++@@@"
};
