/* XPM */
static char *c07e1443f4f14a23e2ff7cab6c8879f51XsGtpwxTRtloR8J[] = {
/* columns rows colors chars-per-pixel */
"64 64 104 2 ",
"   c #3C3D3D",
".  c #3E403F",
"X  c #3F4040",
"o  c #434545",
"O  c #464847",
"+  c #474748",
"@  c #474949",
"#  c #4B4D4C",
"$  c #4E504F",
"%  c #4F4F50",
"&  c #4F5150",
"*  c #535554",
"=  c #565956",
"-  c #585A57",
";  c #575758",
":  c #575958",
">  c #5A5D5B",
",  c #5E615E",
"<  c #5E5F60",
"1  c #5F6260",
"2  c #626563",
"3  c #656A65",
"4  c #686D67",
"5  c #676B68",
"6  c #696E6A",
"7  c #6D736D",
"8  c #70756F",
"9  c #6F7470",
"0  c #6F7871",
"q  c #717671",
"w  c #757A75",
"e  c #787D77",
"r  c #777D78",
"t  c #797E79",
"y  c #7C827C",
"u  c #80857F",
"i  c #7F8481",
"p  c #818681",
"a  c #848A84",
"s  c #888D87",
"d  c #868C88",
"f  c #898E89",
"g  c #8D928C",
"h  c #90958F",
"j  c #8A8F90",
"k  c #8E9391",
"l  c #919590",
"z  c #919690",
"x  c #909693",
"c  c #939792",
"v  c #929693",
"b  c #939793",
"n  c #939892",
"m  c #929895",
"M  c #969B94",
"N  c #969A95",
"B  c #949A96",
"V  c #969A96",
"C  c #979C95",
"Z  c #989E97",
"A  c #949B98",
"S  c #969B99",
"D  c #979D99",
"F  c #989D99",
"G  c #999E98",
"H  c #999F9A",
"J  c #989E9B",
"K  c #9B9F9C",
"L  c #989E9E",
"P  c #9BA19F",
"I  c #9CA19C",
"U  c #9CA29D",
"Y  c #9DA39D",
"T  c #9EA29D",
"R  c #9DA39E",
"E  c #9FA59F",
"W  c #A1A69F",
"Q  c #9AA0A0",
"!  c #9DA3A0",
"~  c #9EA4A2",
"^  c #9EA5A2",
"/  c #9FA5A2",
"(  c #A0A5A0",
")  c #A0A5A4",
"_  c #A1A7A4",
"`  c #A2A7A5",
"'  c #A2A8A1",
"]  c #A2A8A3",
"[  c #A3A8A3",
"{  c #A4AAA4",
"}  c #A5ABA5",
"|  c #A7AEA7",
" . c #A8AEA7",
".. c #A7ADA8",
"X. c #A6ACAA",
"o. c #A8AEAB",
"O. c #A9AFAC",
"+. c #AAB0AA",
"@. c #ABB1AC",
"#. c #ABB1AD",
"$. c #ACB2AC",
"%. c #ADB4B0",
"&. c #B1B7B2",
"*. c #B3BAB3",
/* pixels */
"{ _ ~ ! W _ _ _ _ _ ~ ~ Y p , o # * ; * * * $ $ * ; > 5 3 1 ; # * > 2 1 ; $ $ ; > 2 2 5 1 * # 1 v o.o._ W H b H W ` _ K A ! ) { ",
"Y H B x x H Y ! Y H A Q B p , o + ; 2 5 2 < , , , 3 6 q 7 4 , > , 5 7 6 3 > > , 2 7 7 9 5 2 , q H o.{ Z M x f h K ' W B l k B H ",
"g s p y u s x B g s a g x p ,   o > y s p e t t t t p p u y q w t u u t w 8 8 q w w y y t t p g W { M s p t t a b H h p t w t p ",
"y e q 8 w y u a u t y s h p ,   X 2 h K H b b b b s p p a a a f h f p u y y a s s a a y p f H _  .W h u w 6 8 w p s p w 7 5 q q ",
"w w w e y e w q w w u g b s 2     2 h W C b b H h a e w t a s g g y y q y y d x x s y 9 t f ) O.o.W b p w 6 5 8 e y t w q q w w ",
"w r y u u t 7 7 7 e p h Z s 6 o o 2 s M g f h B s t 8 8 y p a u y y q y w y i g g d w 7 9 p Q O.o.{ x y 8 3 5 q t y t w w t t t ",
"r y y a u r q 0 w w a h I g w * + 2 s x s u s s u w 8 w y a y w w y a a y q y y i i w 7 9 i S O.o.H p w 6 5 8 u f s y w w y y e ",
"y y u y r w w t y y s h C g 7 # o 2 s b p t t u t w t u a y e 8 7 y g k a y y y y w w 9 w i v _ W s t w q q w p l g y w w y q w ",
"a y y y q 0 y y u a f n I s 3 . X 2 f x p t w t w y p a i y w w y a g z f y y y w w 0 7 q i j J Y s y y u u y u s a y t y y q 7 ",
"s s a y y y y y u y i f h a 4 O X 2 f x p w q w y s g s y r w r y y u d s y w w 0 0 6 7 w s v K n g y s h g u y u y y a s a w 5 ",
"g s g f s a u s i y y f C g q $ + 2 s g t 7 7 w p g g f y w 9 y y w y u a y 7 7 9 w 0 w t s A _ W A f u g g s u y y a g b g y q ",
"h h x g g f g f a y y h Y n 0 = * 9 f f w 3 3 8 y a f p w q 7 y y y q w y w w 7 7 w y w t s Q O. .Y h s s f g s p p s B H B s p ",
"g g g f a a s a y w p k B a 2 # * q k k y 4 2 7 q y y t w w w i a y w q w t t w w y p p y d H _ P x s p y u a u y y a h g h g s ",
"0 q w y q q q 4 3 5 w p t 2 O   # 7 k A g y w y a p p p a s g x M z s y p s g s p a f k f x H x y q 8 7 3 7 w q 6 3 4 6 8 q w t ",
"* - 2 4 6 1 = # # : 5 5 > $ X   + 5 k ~ ~ D C D H D A H Y Y ! ! W _ Y D D Q ~ Y g k D Q ! o.{ s 3 - , , ; - 2 3 - # % % * ; > > ",
"* 2 0 y y 7 > * : 6 q q 6 3 3 2 5 y H %.%.@.@.$.@.%.O.O.O.J f k Y $.*.$.%.O.} } W Y ~ O.&.*.$.h 6 4 q w 5 5 7 8 4 2 2 2 2 - # o ",
"M M I Y Y n s u h I D A D A Y Y J I _ X.+.O.O.O.o.o.....! t 2 6 n $.*.$.X._ Y E ~ | ^ } $.$.X.Y x v J Y H A Y _ H x B x B t : + ",
"+.} I I I I I Y  .+.X.I m A Y ~ P n k g D H ~ _ W I H J x q # : g } ] m k s a s Y Y ! m n n Y Y H A B S J { $.O._ Y ! $.%.k 1 # ",
"} I y y y y u h I Y C s i y p a y y y y p s x B g s a g g q # ; d ~ g y 7 7 7 w a g i y q y y g g a t t p x H B a e a C ~ k 1 % ",
"W I y 0 7 7 7 0 p s a y q q q 9 7 q y y w t y u u w y s g w * ; k ~ s w 5 2 3 7 y y y 3 3 7 y y y w t w w t p y 7 3 4 a x p 1 % ",
"{ I f y 0 7 4 7 w y e e y y q 0 9 r a a t q q q w e u h x t ; > k ~ k r 7 7 7 y i y q 3 4 0 y 0 w y p i y w 9 7 7 5 5 y l p 2 + ",
"{ W h u y y w y w w w w y y y q w y p p t w 7 6 q w a h x y 2 2 g Q g y 8 8 y a g i 0 0 y y y y w y p p y w q w w 7 7 i k p > + ",
"Y B a y u s f s a y w w y y y y t r w w r w q 7 q t a h B u 6 6 g C s q 7 q y k n g y y y a y y w r r r w y y y t w w a b p 2 @ ",
"D f y 0 y u g g g a a y y w q q t t t w w w t w t t a b b p 5 6 g A i 0 7 0 y g n g y y y y y 0 w w q q w y a a i w t s b s 6 : ",
"h s t q w y y a a g g g u y 7 0 y s s p y y q y y u f h x t > 2 k B i 0 9 0 y i s s y y y y 7 7 w y y y e e u u a y y y C f q 3 ",
"x f i y y y e e y g n n s 0 4 0 y g k s u y y y f s s g g t , 6 k D d w w y w w a s y y 0 7 0 0 w y y y w w e u y y y s b f 0 3 ",
"P B g d f f a y y s B b s y q y s f a p u s a g h f a s g a 7 w D ~ f i y y 0 w y g i 0 7 0 y y y y y y 8 w u a a y i x I s 5 = ",
"_ Y Z g x h g a y s h h g u y a g f p p u s g x n s s g M s 7 w D ~ k d g y y q i f a y y y a g s a a y w y a g s a h Y Y a 2 O ",
"Y H x s s g g a y a f g g s s g s s u u y a s s a y a h n y , 2 s C h s a y y w y y y y p f g g a i s a a s s h s s h H Y a , # ",
"p y w q q w y y 8 w y a y y w w q q e e q 8 7 7 0 9 y y e , # # 5 u u w 0 0 0 0 5 2 2 7 t y y w 8 q y y p p u w w w t p u q 1 & ",
": > : ; - 2 7 8 1 1 7 7 2 , = = ; > 6 8 7 , : : 2 7 0 4 , $ o o $ 2 6 3 > , 3 3 - # $ , 7 7 2 : = = - 5 8 8 2 > - : > > , : * # ",
"o o # @ + # : > * * - - # .   X * 5 e y y 5 , 1 0 y w 7 3 , > > > 5 8 8 3 5 q w 6 , , 5 q 3 * o + o o $ > 1 * @ o o # # % # # # ",
"# # * * # # # * : * * # o     ; w s k g s u y u s k g s s p p u y a s f d s d x f a p s d r ; o o + # % - 2 - % + # * ; ; * * # ",
"> 2 2 2 , = : , 2 2 > : * ; > q k Z n g g f u s x k g d x B A b k f g h f k h x f d j B A i < o o * < 2 5 5 2 < > : 2 5 5 5 2 > ",
"w w q y w 6 5 7 q q 6 5 7 q t s x g y y y y y y i p e w e a g g p w w e w t w w 9 7 w s l p < o # < e p t 8 6 8 q q 7 7 w w w q ",
"y y a a a e 7 7 y y w t t p g B x f w 7 8 7 6 6 6 6 6 2 2 7 y y 8 2 2 3 5 5 2 2 2 2 2 q a t < o # 6 s s u w w y p t w w w t y y ",
"w y a f a 9 0 w t y y w t p g S k d e 7 6 6 6 3 2 2 5 3 2 2 7 q 7 2 , 2 3 3 2 2 5 3 2 7 p t , + % q s s t t u a u y y w q w t y ",
"6 q p a y w w 0 w w w w w y f b x f r 6 5 6 7 7 3 3 5 6 5 5 6 8 7 2 2 3 7 6 3 4 8 6 5 q p y > o % 5 u a t t u a y w w w t y t y ",
"2 6 r y w 7 w w q 9 7 7 6 w p f g a q 5 2 5 7 w 7 3 6 8 w q 7 6 7 5 6 8 w w 7 7 7 6 6 w p y 1 X + 2 p f u t t u w 7 7 w y p y y ",
"2 6 7 7 7 7 w y w 7 2 1 2 7 p l g i 9 2 3 7 w t 9 7 7 q q 8 4 3 4 7 w w e w 7 7 8 6 8 t a u 2 # # < p f u w w 8 7 5 6 8 t t t w ",
"6 6 7 7 4 7 7 w e 8 2 > 2 w s b k a 9 3 3 7 7 0 8 7 7 7 8 4 2 2 4 0 w y q 8 7 q w 7 8 e a u 6 # * 5 u g a w 7 7 4 4 7 7 5 7 7 7 ",
"7 7 7 0 q 0 7 7 7 4 2 3 7 y f S k a 9 3 1 3 7 9 w 6 5 7 w 8 6 2 6 q w 7 6 5 6 q w 8 7 y a u 6 * * 4 a g a w 7 2 3 4 7 7 3 2 3 6 ",
"7 6 7 0 y y 0 2 2 2 1 7 e s b S x f w 2 1 2 7 w e 8 5 7 y p y 8 7 7 7 7 2 6 q t w 7 w a h u 2 o @ 2 p s y w 6 2 > 5 q q 5 2 3 3 ",
"2 2 3 7 y y y 4 , 1 1 7 t s B K A f r q 7 5 7 w t 8 6 8 u f s t 0 0 0 7 6 q t u y w y g h u , o o 2 y s y 7 6 5 3 5 7 7 4 5 7 7 ",
"2 1 1 5 w u u y 5 2 3 6 w s b b g a r w 7 7 7 7 8 6 6 8 t a p w 8 7 q w w w t t w w t s f t -   o , t a r 9 9 q 9 7 7 9 7 7 q q ",
"w 9 5 6 y a g a w q 8 w p f b s w 6 6 6 5 5 5 2 1 - , 2 7 q 8 5 1 , 5 q q 7 6 5 3 3 5 7 8 3 #     > t a r r r p i y w w q y u g ",
"g a p i s g n g a p s f x M Z p , * > < , : , : * % % ; > < : * $ * , 2 2 1 : * * * * ; - * @ o o > t g d g g k k d a a s g C Y ",
"H A D A B B M x x h B S K W J d 5 1 2 2 1 1 1 2 < : 2 2 5 < # # - 5 6 8 6 2 : ; : > > , , 2 1 , 2 q a C D A I A I P I P A g s a ",
"B H B H C x h h h C S v S S S v f a a f f f a f f f p d u 6 % ; r f x f d p u u p d a a a d a a a f n D B D D H H H S A S p 5 , ",
"x h g s s u u a h b f p y y f j n x s s h x H H B v j j g q ; , d H C g g s s g B B k f g n D n f f f d a a p a a p d j x e ; o ",
"l g p t q 8 8 t s h p w 5 5 7 t u u y w t p g g f t t s s q ; 2 a x a y y y e y p p y w r a f f i w w q 8 q 8 8 5 3 7 p s t ; + ",
"b g p w 4 , , 6 t u t 6 2 2 5 q w 7 4 3 3 7 w t w 6 q y p 8 ; > i f y 7 9 q 7 4 6 7 4 3 5 7 y y 8 2 2 2 3 7 0 7 2 ; 1 w s e < # ",
"b x s t 8 1 , 2 7 0 9 4 2 6 q q 7 4 4 4 5 3 2 3 5 6 q u a q * > i j t q 6 6 6 3 2 2 2 5 5 4 0 0 7 2 , , 3 0 y e 6 > > q p t 2 # ",
"v f a t 8 7 2 1 1 5 4 4 7 q w w 7 7 0 0 7 5 1 2 5 q t p s w > , i j p 6 5 6 8 7 5 1 2 7 w w 7 7 7 2 1 2 7 e y y 7 , 2 q a t > # ",
"j a t w w w 7 3 1 1 3 7 7 7 7 7 7 0 w q 0 3 2 7 q w t a s t > 5 p s t 2 , 4 0 w 4 3 4 y p y 8 6 5 4 7 7 w e e w 7 3 5 w s e 2 # ",
"s y q 5 q w 8 5 4 3 3 7 q 7 5 5 7 w w w 7 4 6 q t t u a s w 2 2 p f w 3 3 6 0 w 0 7 w y s y 7 2 5 7 0 w e w w w q 7 7 w s p 2 ; ",
"a y 8 4 6 7 8 q q 6 5 6 q 7 3 3 q w w 7 7 6 7 8 t t t p s q < 2 p s w 5 2 4 9 7 7 0 y g u w 5 1 5 q e e 9 r y i e 7 7 w a u 5 > ",
"a p q 5 2 3 7 w e q 6 6 8 6 2 5 q w 7 7 7 8 8 w q q w u p w ; 2 p f w 2 2 5 4 7 7 y u y w 7 5 2 6 q q 6 5 9 y a t 7 7 y a u 6 > ",
"g d t 6 2 3 q t w w q q w 6 5 q t e q 7 w t t w q 6 q y s t 2 5 d j t 5 , 2 7 0 w y y 8 5 6 9 q 8 8 8 5 2 6 r i e 7 w a g u 2 * ",
"x k p t q w t t w w y y t w w t y y r w w y p t q 6 q p f t 2 5 d j p 9 7 5 7 w w y 8 4 4 q y y w 8 9 9 6 9 t y e w y g h y 1 # ",
"g s a y p p p t 8 q t i t t t y i y y w w t y t q 7 w a g w 2 2 p k a t q w 7 0 q 0 7 7 q y y y w 8 w e t w t t t t u f h y 1 $ ",
"e w q q t t t 6 5 5 q r w q 9 q 9 9 9 7 6 7 7 6 5 5 8 y t 6 ; - 6 t t w 0 8 7 4 5 2 3 6 q w q 6 3 6 8 e e 8 q 9 8 5 q t e 7 > $ ",
"> > - > < 3 5 2 - > 2 2 1 > : > > : > 1 2 2 > = - > 3 5 2 : & & > 2 5 3 1 1 2 2 : * ; , 5 3 , = ; > 2 6 6 5 > : ; - - > > > ; * ",
"% # # # % ; > - * ; > > * & # % % % & * > > * # % - > > ; & # # # : > > * = , > * # # ; 1 > ; + # ; > 2 2 > * # # * $ * % * * * "
};
