/* XPM */
static char *c1c6c3cd7df64cf498fb075f99323613MsJt8vgKyBheM0Ma[] = {
/* columns rows colors chars-per-pixel */
"64 64 37 1 ",
"  c #003D3D",
". c #00403F",
"X c #004444",
"o c #004847",
"O c #004748",
"+ c #004C4C",
"@ c #00504F",
"# c #004F50",
"$ c #005454",
"% c #005956",
"& c #005758",
"* c #005C5B",
"= c #00615E",
"- c #005F60",
"; c #006563",
": c #006A65",
"> c #006D6A",
", c #00736D",
"< c #007671",
"1 c #007B75",
"2 c #007E79",
"3 c #00827C",
"4 c #008681",
"5 c #008A85",
"6 c #008D89",
"7 c #00928D",
"8 c #008F90",
"9 c #009692",
"0 c #009A95",
"q c #009D9A",
"w c #00A29D",
"e c #00A5A2",
"r c #00AAA4",
"t c #00ADAB",
"y c #00B1AD",
"u c #00B4B1",
"i c #00BAB3",
/* pixels */
"rreewrerrewew4=Xo%&$$#$+$&;::=%@$*;;%$@%*;;:;$+;9ytrww90erreqqrr",
"wq090qwewq0w05=XO&::;;===;><<,=*=>>>;**=;>,<>;-<0tww0777wrw0990q",
"66433600765704= X-2642222344331<23331,,112332246wr06332590932234",
"321<2333333674*  :9eq97076443637775335366643460ryw931,,24633,>,<",
"2112331,<13705;  :6w09000331356773313369963<28etyw041>>,1321,,11",
"123332<,,35906>oX;60777063,,335333122337751,<5quyr73,>><23212232",
"233532<,1357071$o:50635631,13531,3553333442><4qtyw51>>,366311323",
"23332122335007,@X;5753333133333<,3775313211<<39rw72,,1249731121<",
"53333133337905:oX;695212134533113397733131,,<48qw7335333553233<,",
"55333333333795:o.-59411236764112335653311,,,169q073377533335641>",
"777735353337w71@O:492>,137763112313333<,<<,126qeww7577533357773,",
"779767675330w9,%$<661::<25641,1233<133<>,11326qtrw7737764560w065",
"77655555325793:@&1693:=>13221113332<13311344360tw063335333577777",
"1113<1<>;>133=o O,9063334544567900633676357769w03<,,>,11,;>>,,13",
"@==,>=%+@%:>=@. O>9rww0wwq0qwewerew00ee070qwwtr6;%==%%;;%@+$$%%*",
"%=<33,=$%>1<>;:;>3qyyyyyytuytq69wyyiyytrwwrtuiy7,>11>>,,>=;:;*+X",
"9wwrw0339ww00qwwwqetyytyyyyrw3:>0yiiyrwwrrrryyrw99wwq0www09q92&O",
"yr00wwwrrirw0qwww0970qeeww0w9<+&7rw07733www000wwqq00wrutwwryu9;+",
"rw333337www333453333369075577<+&7w731,,337333337743249q0533wr6;+",
"w033,,,337311<1,,<332134333671$&7w61:==3333:::3332111333,:,394;+",
"rw73,,:,<31333<,<2452<,<133772%*7e72,,,3333:,333234431,<,:>394-O",
"rw93333333113333134421,,,13904=;7r73,<33933,333,1344211,<,,494-O",
"w033373353<33333221111<<<35905>>7w61,<3996333333212223332<1594;+",
"w733337073333,,322211122235794>;603,:337933333<31<<<1355422696>&",
"763,1333577763,,35643333337993*;7q41<124773333<,<33313355335961:",
"7733333137003<,,37763333555773=>9w5211<13533,,,<1333<1333335061=",
"w97566533600631356545557773793>1qe6333<15631,<333333<135535706:%",
"www799753577733676443579965905,20r9663223653336755333357657ww6=o",
"ww7766753377755666333565333903=;6095553133333676535655676670w4=o",
"331<,33313333311<,221<,,,3333=o@;333<,<,>;=,33321<335531113451*$",
"=*%%%;,>==,,:=%%%*>,,=%%=,,:=@oo@;>;*=::%@@=,,=%%%==,,;*%%&=;*%+",
"oo+oX@%=%%%%+. .%:233>==133,===%=>1,;:11>==>,>$oooo@==$oXo++++++",
"o+$$+o@$&&$+O .&177763336975654435764669644662&XOOo#*=&$O+$&&$#+",
";;:;=%%=:;*$%%*<700776569966700096777797668004*OO$*:>>:***;:>>:*",
"<1221,:,1<>>>126973233324421247742232111<,1694-Xo;243,,,<<,,111<",
"335532<<22212470962,,,,>>>>;:,23,:=;:::;;=;142-X+>56311333111233",
"125652,<23322470952,,,>::;:;;:>1,;==:;;:>;;,42=X$,6622363321<123",
">13531<1<1111269962>:>,,:::>>>>,>>;>,>>>,,><43*X#>45213531122223",
";>131,111,,>,147641:;>11,:><<<,,,>>,11,>,>>143*XO;4532231,,13433",
":>,<>,<22,:;;,4994<;;><2,,,11,>;>,1121,,,,,254:oO:46521,,>>,2221",
">>,,,,,12,;=;<5994<::>,<,,,,,,;;:131<,,,1,,353,$$>3641,>>>,>,,,,",
",,,<1,>,,,:;,37004<:;:><<,>,1<>:,,1,>>,<1,,353>$$>5751,;:>,,;;>>",
">>,<33,::;;>269q051:;:>12,>,333,,,,::><21,2573;Xo:374<>:=>,<>::>",
":;;,333>===,260qq62,>><12<>137621<1,><23313603=XX;363,>::>,,,:>,",
";;;:3353:;;,16907421<>,<,,>,3542,,<111221<2572&XX;342><1<,,,:,,3",
"1,>,13752,<147961>>>>::;=**=><,>==><,,>>>::,,;+ .&254224421<1333",
"6554670755669904;$&-*&*&$+#&;*&$@%=;:=&$@$$%%$oXX*276699767667ww",
"00000009999qqeq5>-;:;;;:;*-:>*++==,,>;*%**==;;;*;<500qqqqqqq0063",
"0q0q00779w090qq93556666665563>$&16776533566566554690w90w00qqq4>-",
"99765336797533480977700wq9897<%*6w0776650076700996667355455992&X",
"96421,,26751>:<33333137763256<&-4953333335312376311<1<<,>:,362&O",
"9941>==,333:;;><3,:=:,121>,34<%*463<,,,,,>>::<33<:;;=,1:;*=152*+",
"9952,;=;>1,>:><1,,:,::::>><35<%*482<,,::;;;:>><,,;==:133,&*<52;+",
"9952<>;==:,>>,11,,<<,:=:>,2561*-484>:>,,:;;,11,,,;=;>333,;;<52*+",
"862121,;==>,,,,,>,11<:;><13551;:462>;><<,=>333<>>>>,1111,;>162;+",
"52<>,2,,>>:,,,>:,111,,><123561;;451;;><3,,1364>::,113111,,>253:%",
"53,>>,,<<,;>,,::,11,,>,<123451--461::>,<,13733:-><21<2343,,333>=",
"631:=:,12,>,<,:><1,,,,<<<<144<*-461:;:>,,3331>::><<,:<343,<373>*",
"762>;>121<1<1>><22<,1221<>,362;>582:;;>,133,::,<<,<:;>241,<373=$",
"9752<12211332<1233212333<,<462:>594<,>,213,>>1331<<,><223<3793=+",
"76534442<<23322333311232<,1562=:47421<<<<1,,12331,221122223773=+",
"2<<<222>:><1<<<<<<<,,>,,:>,33>%&>321,,,>:;;,12<>:>,121<,,,,23,*$",
"**&*-:>;&*;:;*&****;;;*&&*:>;&$$&:>:;;;;&%%*::*&&*:>>:=&&***=&%$",
"@@++#&*&%%*&%++$++$&*&%o$&**%++++&*&%%*=%++&-*%++$*:;*$++$++$$$%"
};
