/* XPM */
static char *_b6dd75938754d6f927669ff0db81f8aWbhleeZnGND3Z8Bw[] = {
/* columns rows colors chars-per-pixel */
"64 64 63 1 ",
"  c #3C003D",
". c #3F0040",
"X c #440045",
"o c #470048",
"O c #4C004D",
"+ c #4F0050",
"@ c #530055",
"# c #580057",
"$ c #570058",
"% c #5B005C",
"& c #5F0060",
"* c #630064",
"= c #680067",
"- c #670068",
"; c #6C006C",
": c #70006F",
"> c #6F0070",
", c #730074",
"< c #780077",
"1 c #770078",
"2 c #7B007B",
"3 c #80007F",
"4 c #7F0081",
"5 c #830083",
"6 c #880087",
"7 c #860088",
"8 c #880088",
"9 c #89008A",
"0 c #8B008B",
"q c #8C008A",
"w c #8D008B",
"e c #8F008F",
"r c #90008F",
"t c #91008F",
"y c #8C0090",
"u c #8E0091",
"i c #920092",
"p c #940093",
"a c #920094",
"s c #940096",
"d c #980097",
"f c #940098",
"g c #970099",
"h c #97009C",
"j c #990098",
"k c #99009A",
"l c #9B009C",
"z c #9D009D",
"x c #A1009F",
"c c #9A00A0",
"v c #9E00A2",
"b c #9F00A2",
"n c #A000A2",
"m c #A100A4",
"M c #A400A4",
"N c #A500A7",
"B c #A800A7",
"V c #A700AD",
"C c #AA00AA",
"Z c #A900AC",
"A c #AC00AC",
"S c #AD00B0",
"D c #B200B3",
/* pixels */
"MmvvvnmmMnvvk5%Xo@@@@++++#***&@O@%*&@@O@%***&@O*iACMzkssxMnclvvM",
"zksuakzvzgggg5%XO@*-*%%%&*;,;;&%%;;;*%%%*-;>;*%,sMMdiewiznzsuupk",
"w65238ise65ei5%XX%285222222522,,2332,>:,,223222exMp65226ist5,,25",
"2<,:,2352227e5% X*izditit653565ww8522256655258gmMxt3,;;,565,;;;,",
",,,<22,,,<2wi6*  *ezsipkt3,,278ww52,147ui82,10cZAMi5,;*;222,,,,,",
",2233<>->,5ta8;X.*6sw8ti8<;,155322,1125eu7,;>5lZZni2:*;,222,,112",
"222532,>,15tde,@X*6i63663,,,252,:<55211252,;>4hVVg5,;*;2882,,221",
"2252,,,2226tdw;OX*6i52222,<2622:,2ei72,211,>>4amze2>:,25te3,<1,,",
"5522<,<2356es6*XX*6i51,2,25542,,25wt83211,>-,2uka7,25323662222,;",
"55552222525ei6=X *6i5,,226e82112235682,,,,;;,5alkw55ww52222585,*",
"788886552128se,OO*7e,;;,5ti52,,1<<2352;;,,,,27gmms666w55226eiw2,",
"eiie86w6524uki,@@;88,**,2585,,>12<,,2<,;;,2127hZCzt666w6527sks85",
"8ew63565215ts5*O@,uu2=*;,222,,,263,,,22,,25525kMvi852355225wetw6",
",,2,,,:;**,22*o o;0gw2,2355487eusi6257w626eu7uls2,,;*;,,;*=;;,<2",
"@%*=;&@OO%*;&+X o-uMnkskkgsgkzlcvnzksvvkiuglvMM8*@%%@%&*@OO@+@#%",
"@%,22;%@%*,;;*=&-4lSSZZAZZSCVl8uvCDAZZCMzvmZDDAu;;,,;*;:=****%OX",
"psznxd66eglhggzzklvVZCVZCVCVz5*;aADZVmzzmMmVAAVliaklgglxksaga1$o",
"CBdkkdkkCAMlffzzkiiaslvnzgghi;O$8Bniw66ekvkaisgllgaalmZZnknZSu&O",
"Mk5<225tkxs62445222226isi65ee;O$wme2>;;,6851,26e05225eks625kb8*O",
"np3:;;;,5652,>,>;,2222252128e,@%uv7,***;22,;*;232,1,,252;*=3a5&O",
"Mkw2,;=;,22222,>>1562;;,,<28t2@&ymu,;;;252;*;:<,,2442,,;;*-2u5%O",
"Mzi522,21,,,242,,1552,;;:<6ti2**8cu2::26i5,:,22,14552,,,,;>4a5&o",
"vs62266662,1222,21,,,,,;,<5is5*;8g8,;,3ts82<552,,11,,2222,,5i5&O",
"g82,<5tt86542,,,122,11,1<25ip3*;ea5;=,2es852541,,,,,,2865115i6;@",
"u72,,2356eew6,;,26852,,2256ti2%*0g5,>,15882221,;,222,2255225i8,*",
"i022222,28sp8,;:2ee622268868e2%;ul7,,1,,564,>>;,,232,,<52226a8,*",
"la078w5<26ps6,,26865556wi858i5;,hc8422,,474,;,222532,,25525ik8-@",
"mziutte525ei6336885256wpe66ts6;,hvu785,,5852228e5552<26w650ln8%O",
"vkt668e6258e866686532568525ti2%*6dt6722,222256ee5556566w66wdd5*O",
"52<;;122,,25222,,,<,,:;;;,22<*OO*22<,,,;*%*;<22,>>12552<,,225,%@",
"%%%@$*;;&&;;*%#@@%;:;&@@*;;;%OXX@*;*%%**%OO%;;&@$$%*;;*%#%%%%%@O",
"XXoOo+@%@@$$O  X@=,2,;&*>22;**%%**,;*;,,;%*-:;@OXXX+%%@OXXOOOOOO",
"OO@@OOO@$$@OX..@,8uu74238uw75654258887eu855881$XXXo+%%$+oO@$$@+O",
"%***%%@%**$$@@%,idi78668iiy8esgs8etue8uee7eag4%oo@&*--*&%%*---*%",
",,,,,;*;,>;*;>25ae4222,225,,15t84,,,,2,,>;,6y4&XO%152>;:>,;;,1,>",
"225552;,121,25eaa51;;,;;;;-**;<2,***;****&*,52%XO;875,,222,,,122",
"12565,,,1222250gu71;;=;*****&*;,;*%***%*;**;52%X+;662,26522,,,22",
";,252,>,,,,,,27ia71;;*;;**-;-;;;;**;;;--;;-,52%XO;552,252,,<2222",
"*;22,,,,,>;;;,5e85,**;,,;*;;,:;;;*;;2,;;;;;,52&Xo*262,22,;;,2222",
"*->;;;,1,>*&*;2ii5;**;,,,;;,,>**;;,<,,;;;;;,62*XO*5852,,;=;:<22,",
"-;;;;;;,,,*%*>5au5>**;;,;;;;:;*&*,,2,;;;,;;255;@@;2w5,;;==;;;;;;",
";;;;,,;;;;**;28gu5>***;>,;=;,,;*;;,;;*;,,::253*@@;5e5,;**;;;***;",
";*;,22;****;26ikg7>*&*;,,,;;252;;;,;*-,,,,,5w3*XX*585,;&%-,,;**;",
"***;25<;%%&;26slg71>;;;,<>;,5862,;,;;>22<,2wt3%XX*282;--*-;;;=*;",
"*&&*,35,;%*;,5is851,>;;,;;;;255,,;,,,,22,,2662% X%251;>>>>;;;;,,",
">>->26e6,;:,2ei8,;-;-***%%%&;,;*%*;:>;;-;*;;;*O  %<5212542,,,,56",
"e5446eie6566pda5*@$&%$%$@OO%%*%@O@%-*&@@@+@@#@X.X%2w87euu00770ik",
"ggggassttiskznk6;&**&&**%%&**%OO%*;;;*%@%%%%***%%,6pggklkglhgu86",
"skksssetpsagafga8557777786573;O%,eu075238775776558akaaggkgghg4;%",
"iiww5526tpw5445uit08eakkkiuuw:#%6zsu0w6wiau88agsu8866566557uu2$X",
"ew5<,;;26w5,-*>2552,,5we72255,@*5u522222552,,5w84,,,:,,:;*;482$X",
"ie5,**%;23<;&&->,;;**>,2,;;25,@%402>>>;;;;;**,22,*&&*;,;&$&,62%O",
"si81;&%*;,;;*;;,,;******-;,25,@%4y2>;;=******;::;*%%*,3<;%%:52%O",
"ie52,;*%%*;;;,,,;;:,;-&*;;,58,%*4u2;*=;;*%*;,,;;**&*;<22;&&,52%O",
"852,,,;*&**;;;;;;:,,,**-;,286<**581-%;,,;*;,52,*;;;;,2,,;**<82%O",
"82;;,,;;***;,;;=;,<,;;;;22256,%*55,**;,,;;,582;**;,,<<,,;;;<62-@",
"52;*;;:,,;*;,>*-;,,;;;;,,2268,%&471**;;>;,366,-&=;1,,,242;;252;%",
"63,***;,,,;;;;*-,,;;;,,,,,,25,%*77,***;;:232,;--;,,;*,452;;263-%",
"e72;**,,,,,,,;;>,2,;,22,;;;36,*-781*&*;;,22;-->,;:;;*;22<;,5w3*@",
"ie6<,,22,,22,,,252,,,222,;;582*;7u4>;;;,<<:;-,22,,;;;>12<,2wi2%O",
"8882554,;,2222224221,221;;,682%*2e81,,,;,;;;,222,;,<,122<22we2*O",
",,,,12,>*;>,,>,;>>>;;;>-*=,22-@%;22,;,;;*&*;,,,;*;,<1,,;;;,,<;%@",
"%%%@&*-&%%&*&%%$$$$&&*&@$%*-*$++$*-*&&*%%@@&--%$@$*;;*%%%%%%%%@@",
"OOOOO$&$@@%%@+OO+++$%%+OO@&%$+OOO$%%@$%%@OO@%%@OO@%*%%@OOO+OO@@@"
};
